<svg width="331" height="306" viewBox="0 0 331 306" fill="none" xmlns="http://www.w3.org/2000/svg">
<g filter="url(#filter0_f_82_43)">
<ellipse cx="165.5" cy="249" rx="115.5" ry="7" fill="white" fill-opacity="0.3"/>
</g>
<path d="M207 185.96H158V172.1H207V185.96Z" fill="white"/>
<path d="M207 140.96H158V127.1H207V140.96Z" fill="white"/>
<path d="M208 164.96H159V151.1H208V164.96Z" fill="white"/>
<path d="M158.04 180V131H171.9V180H158.04Z" fill="white"/>
<g filter="url(#filter1_dd_82_43)">
<path d="M79.7285 242V67H162.479C181.812 67 198.812 70.5833 213.479 77.75C228.145 84.9167 239.562 95 247.729 108C256.062 121 260.229 136.5 260.229 154.5C260.229 172.333 256.062 187.833 247.729 201C239.562 214 228.145 224.083 213.479 231.25C198.812 238.417 181.812 242 162.479 242H79.7285ZM129.229 202.5H160.479C170.479 202.5 179.145 200.667 186.479 197C193.979 193.167 199.812 187.667 203.979 180.5C208.145 173.167 210.229 164.5 210.229 154.5C210.229 144.333 208.145 135.667 203.979 128.5C199.812 121.333 193.979 115.917 186.479 112.25C179.145 108.417 170.479 106.5 160.479 106.5H129.229V202.5Z" fill="white"/>
<path d="M79.7285 242H77.7285V244H79.7285V242ZM79.7285 67V65H77.7285V67H79.7285ZM213.479 77.75L212.6 79.5469L212.6 79.5469L213.479 77.75ZM247.729 108L246.035 109.064L246.04 109.072L246.045 109.079L247.729 108ZM247.729 201L246.039 199.93L246.035 199.936L247.729 201ZM129.229 202.5H127.229V204.5H129.229V202.5ZM186.479 197L187.373 198.789L187.381 198.785L187.389 198.781L186.479 197ZM203.979 180.5L205.708 181.505L205.713 181.497L205.717 181.488L203.979 180.5ZM203.979 128.5L205.708 127.495L205.708 127.495L203.979 128.5ZM186.479 112.25L185.552 114.022L185.576 114.035L185.6 114.047L186.479 112.25ZM129.229 106.5V104.5H127.229V106.5H129.229ZM81.7285 242V67H77.7285V242H81.7285ZM79.7285 69H162.479V65H79.7285V69ZM162.479 69C181.563 69 198.253 72.5363 212.6 79.5469L214.357 75.9531C199.371 68.6303 182.061 65 162.479 65V69ZM212.6 79.5469C226.954 86.5608 238.079 96.3997 246.035 109.064L249.422 106.936C241.044 93.6003 229.336 83.2725 214.357 75.9531L212.6 79.5469ZM246.045 109.079C254.139 121.707 258.229 136.818 258.229 154.5H262.229C262.229 136.182 257.984 120.293 249.412 106.921L246.045 109.079ZM258.229 154.5C258.229 172.011 254.141 187.128 246.039 199.93L249.418 202.07C257.982 188.539 262.229 172.656 262.229 154.5H258.229ZM246.035 199.936C238.079 212.6 226.954 222.439 212.6 229.453L214.357 233.047C229.336 225.727 241.044 215.4 249.422 202.064L246.035 199.936ZM212.6 229.453C198.253 236.464 181.563 240 162.479 240V244C182.061 244 199.371 240.37 214.357 233.047L212.6 229.453ZM162.479 240H79.7285V244H162.479V240ZM129.229 204.5H160.479V200.5H129.229V204.5ZM160.479 204.5C170.722 204.5 179.707 202.622 187.373 198.789L185.584 195.211C178.583 198.712 170.235 200.5 160.479 200.5V204.5ZM187.389 198.781C195.225 194.776 201.345 189.009 205.708 181.505L202.25 179.495C198.279 186.324 192.732 191.557 185.568 195.219L187.389 198.781ZM205.717 181.488C210.084 173.802 212.229 164.782 212.229 154.5H208.229C208.229 164.218 206.206 172.531 202.24 179.512L205.717 181.488ZM212.229 154.5C212.229 144.06 210.088 135.029 205.708 127.495L202.25 129.505C206.203 136.305 208.229 144.607 208.229 154.5H212.229ZM205.708 127.495C201.34 119.983 195.21 114.292 187.357 110.453L185.6 114.047C192.747 117.541 198.283 122.683 202.25 129.505L205.708 127.495ZM187.405 110.478C179.732 106.467 170.735 104.5 160.479 104.5V108.5C170.222 108.5 178.558 110.367 185.552 114.022L187.405 110.478ZM160.479 104.5H129.229V108.5H160.479V104.5ZM127.229 106.5V202.5H131.229V106.5H127.229Z" fill="black"/>
</g>
<defs>
<filter id="filter0_f_82_43" x="0" y="192" width="331" height="114" filterUnits="userSpaceOnUse" color-interpolation-filters="sRGB">
<feFlood flood-opacity="0" result="BackgroundImageFix"/>
<feBlend mode="normal" in="SourceGraphic" in2="BackgroundImageFix" result="shape"/>
<feGaussianBlur stdDeviation="25" result="effect1_foregroundBlur_82_43"/>
</filter>
<filter id="filter1_dd_82_43" x="60.7266" y="48" width="220.504" height="215" filterUnits="userSpaceOnUse" color-interpolation-filters="sRGB">
<feFlood flood-opacity="0" result="BackgroundImageFix"/>
<feColorMatrix in="SourceAlpha" type="matrix" values="0 0 0 0 0 0 0 0 0 0 0 0 0 0 0 0 0 0 127 0" result="hardAlpha"/>
<feOffset dx="1" dy="1"/>
<feGaussianBlur stdDeviation="10"/>
<feComposite in2="hardAlpha" operator="out"/>
<feColorMatrix type="matrix" values="0 0 0 0 0 0 0 0 0 0 0 0 0 0 0 0 0 0 0.5 0"/>
<feBlend mode="normal" in2="BackgroundImageFix" result="effect1_dropShadow_82_43"/>
<feColorMatrix in="SourceAlpha" type="matrix" values="0 0 0 0 0 0 0 0 0 0 0 0 0 0 0 0 0 0 127 0" result="hardAlpha"/>
<feOffset dy="4"/>
<feGaussianBlur stdDeviation="2"/>
<feComposite in2="hardAlpha" operator="out"/>
<feColorMatrix type="matrix" values="0 0 0 0 0 0 0 0 0 0 0 0 0 0 0 0 0 0 0.25 0"/>
<feBlend mode="normal" in2="effect1_dropShadow_82_43" result="effect2_dropShadow_82_43"/>
<feBlend mode="normal" in="SourceGraphic" in2="effect2_dropShadow_82_43" result="shape"/>
</filter>
</defs>
</svg>
